<svg width="32" height="32" viewBox="0 0 32 32" fill="none" xmlns="http://www.w3.org/2000/svg">
<path opacity="0.1" fill-rule="evenodd" clip-rule="evenodd" d="M0 16C0 7.16344 7.16344 0 16 0C24.8366 0 32 7.16344 32 16C32 24.8366 24.8366 32 16 32C7.16344 32 0 24.8366 0 16Z" fill="#F0EFED"/>
<path d="M17.722 11.1585H19V9.09154C18.7795 9.06338 18.0212 9 17.1382 9C15.2956 9 14.0333 10.0763 14.0333 12.0545V13.875H12V16.1858H14.0333V22H16.5263V16.1863H18.4774L18.7871 13.8755H16.5257V12.2836C16.5263 11.6157 16.7199 11.1585 17.722 11.1585Z" fill="#F0EFED"/>
</svg>
