<svg width="260" height="260" viewBox="0 0 260 260" fill="none" xmlns="http://www.w3.org/2000/svg">
<g clip-path="url(#clip0)">
<path fillRule="evenodd" clipRule="evenodd" d="M204.793 132.816C210.592 144.557 214.32 157.127 215.575 169.161C216.911 181.696 215.635 194.33 211.896 205.674C208.561 215.87 203.104 225.508 196.116 233.537C190.352 240.16 183.683 245.727 176.291 250.069C170.593 253.463 164.63 256.12 158.585 257.947C155.997 258.764 153.382 259.409 150.667 259.903C150.299 259.968 149.929 260 149.562 260C148.009 260 146.511 259.428 145.409 258.372C144.047 257.071 143.488 255.217 143.916 253.447C144.423 251.356 144.978 248.935 145.545 246.313C146.302 242.479 147.266 237.245 147.798 231.503C148.327 225.172 148.324 219.713 147.783 214.844C147.196 209.312 145.929 204.061 144.003 199.217C142.297 194.958 140.009 190.697 136.808 185.823C133.803 181.26 130.532 176.806 126.812 172.211C123.446 168.036 119.368 163.317 113.584 156.89L113.494 156.804C113 156.315 112.555 155.824 112.029 155.244L111.924 155.128C111.305 154.44 110.697 153.765 109.847 152.871L108.632 151.578C108.627 151.572 108.537 151.474 108.386 151.309C107.635 150.491 105.373 148.027 104.453 146.965C100.746 142.905 97.0003 138.069 93.093 132.284C85.7007 121.173 80.3416 109.039 77.5739 97.1579C74.6586 84.8841 74.3896 71.6565 76.8219 59.9336C78.9534 49.28 83.416 39.0188 89.7208 30.2944C94.8572 23.1553 101.043 17.005 108.103 12.0262C113.639 8.13288 119.423 5.03489 125.303 2.80745C128.102 1.73269 130.931 0.846012 133.69 0.176974C135.538 -0.277111 137.51 0.155479 138.956 1.32697C140.4 2.49577 141.126 4.253 140.897 6.01829C140.602 8.28335 140.301 10.8466 140.035 13.7431C139.668 18.0932 139.312 23.3085 139.486 28.736C139.662 34.8487 140.319 40.3837 141.444 45.2067C142.629 50.5321 144.504 55.4572 147.008 59.8825C149.171 63.7678 151.774 67.4945 155.459 72.0005C158.606 75.8266 162.235 79.8328 166.55 84.2393C166.631 84.3279 166.712 84.4139 166.79 84.5026C167.353 85.1601 167.981 85.7507 168.549 86.285C168.593 86.3271 168.638 86.3689 168.682 86.4103C169.144 86.8482 169.558 87.2405 169.943 87.6328C170.012 87.7027 170.079 87.7725 170.139 87.8451C170.932 88.7425 171.886 89.6399 172.812 90.5051L173.659 91.3031C174.235 91.8271 174.816 92.4182 175.507 93.1544L178.339 96.0294C179.568 97.2089 181.948 99.7669 184.291 102.438C192.629 111.893 199.532 122.122 204.793 132.816ZM92.8421 188.167C96.6337 192.463 99.7861 197.139 102.195 202.034C104.839 207.392 106.539 213.128 107.118 218.623C107.713 224.26 107.118 230.185 105.432 235.298C103.907 239.952 101.417 244.353 98.2302 248.012C95.5839 251.049 92.5327 253.596 89.1576 255.571C87.2777 256.691 85.285 257.658 83.2721 258.419C82.5722 258.682 81.8318 258.811 81.1001 258.811C79.8015 258.811 78.5174 258.405 77.4734 257.629C75.8393 256.406 75.044 254.455 75.3997 252.534C75.7641 250.549 76.0215 248.759 76.1777 247.064C76.4148 244.21 76.4148 241.717 76.169 239.5C75.9 236.958 75.3187 234.554 74.4395 232.34C73.6615 230.394 72.6175 228.452 71.1627 226.243C69.8005 224.166 68.3111 222.135 66.6047 220.031C64.641 217.594 62.3417 215.006 60.5573 213.026L60.4676 212.938C60.2739 212.749 60.0656 212.521 59.8227 212.244C59.5421 211.927 59.2558 211.61 58.848 211.183L58.3332 210.64L58.3419 210.632L58.213 210.493C57.7045 209.945 56.7888 208.957 56.3463 208.448C54.7036 206.648 52.9973 204.442 51.2128 201.806C47.8261 196.714 45.3794 191.171 44.1155 185.741C42.7852 180.147 42.6666 174.101 43.78 168.738C45.0092 162.604 47.6613 157.999 49.6684 155.223C52.0053 151.972 54.828 149.167 58.0498 146.891C60.0627 145.478 62.1653 144.285 64.3055 143.336C66.1651 142.517 68.3516 142.673 70.0521 143.75C71.7527 144.827 72.7071 146.665 72.5596 148.57C72.4468 150.013 72.308 152.2 72.3803 154.514C72.4613 157.3 72.7592 159.826 73.2682 162.021C73.8148 164.463 74.6651 166.704 75.8075 168.725C77.0569 170.96 78.4711 172.79 79.6916 174.292C81.1348 176.041 82.7746 177.849 84.6805 179.792C84.7499 179.862 84.8165 179.934 84.8801 180.007C85.1145 180.279 85.3857 180.538 85.6637 180.804L85.7043 180.843L86.2047 181.326C86.2741 181.393 86.3406 181.466 86.4042 181.536C86.7629 181.933 87.1851 182.334 87.6074 182.726L87.9718 183.067C88.2379 183.317 88.4895 183.57 88.8365 183.933L90.1698 185.287C90.7338 185.829 91.8877 187.079 92.8421 188.167Z" fill="#E3AA6D"/>
</g>
<defs>
<clipPath id="clip0">
<rect width="260" height="260" fill="white"/>
</clipPath>
</defs>
</svg>
