<svg xmlns="http://www.w3.org/2000/svg" viewBox="0 0 921.5 138.43"><defs><style>.cls-1{fill:#fff;}</style></defs><g id="Layer_1" data-name="Layer 1"><path class="cls-1" d="M560.14,0h-45l13.89,43.3h45L537.66,69.12l13.89,43.55h0C575,95.61,582.62,69.8,574,43.3ZM456.33,43.3h45L515.18,0h-45L456.33,43.3h0c-8.59,26.5-.94,52.31,22.48,69.37h0L492.7,69.12Zm22.48,69.37,36.37,25.76,36.37-25.76-36.37-26.2Zm339.3-70.43c-10.64,0-17.4,4.82-20.61,12.67h-.81V19.26h-16v93.19h16.32V72c0-10,6.22-15.78,15-15.78,8.56,0,13.62,5.46,13.62,14.79v41.43H842V68.3C842,51.57,832.49,42.24,818.11,42.24Zm68-23.14c-22.08,0-35.37,17.28-35.42,47.32s13.25,47.63,35.42,47.63S921.5,96.59,921.5,66.42C921.5,36.43,908.16,19.1,886.07,19.1ZM867.49,66.42c0-21.91,7.18-33.45,18.58-33.45,7.8,0,13.59,5.35,16.51,15.68l-34.8,25.28Q867.48,70.41,867.49,66.42ZM886.07,100c-8.05,0-14-5.69-16.79-16.75l35-25.42a82.11,82.11,0,0,1,.43,8.59C904.7,88.51,897.57,100,886.07,100ZM707.28,83.35c0,10.54-7.52,15.78-14.74,15.78-7.84,0-13.07-5.55-13.07-14.34V43.22H663.15V87.31c0,16.64,9.46,26.06,23.08,26.06,10.37,0,17.67-5.45,20.83-13.21h.72v12.31h15.83V43.22H707.28Zm-81-41.18c-14.56,0-25.74,6.49-29.35,19.11l15.24,2.17c1.62-4.74,6.22-8.79,14.2-8.79,7.57,0,11.72,3.87,11.72,10.68v.27c0,4.69-4.92,4.91-17.13,6.22-13.43,1.44-26.28,5.45-26.28,21,0,13.61,10,20.82,23.17,20.82,10.86,0,17.35-5.09,20.33-10.9h.54v9.51h15.68V66C654.38,47.67,639.46,42.17,626.26,42.17Zm11.85,45.3c0,7.71-6.22,14.24-16,14.24-6.81,0-11.68-3.11-11.68-9.1,0-6.27,5.45-8.88,12.76-9.92,4.28-.58,12.84-1.67,15-3.38ZM758.45,25.92H742.13V43.25h-9.91v13h9.91V94.56c-.09,13,9.37,19.43,21.64,19.07a34,34,0,0,0,8.3-1.22V99.48c-1.24.16-4.13.53-6.23.58-4.1.1-7.39-1.44-7.39-8V56.22h13.66v-13H758.45Z"/><path class="cls-1" d="M0,69H6.51v7H7.3c1.49-2.28,4.11-7.53,12.67-7.53C31,68.39,38.69,77.18,38.69,91S31,113.7,20.09,113.7c-8.45,0-11.3-5.25-12.79-7.65H6.73v23.17H0Zm19.17,38.69c8.45,0,12.79-7.42,12.79-16.78S27.74,74.44,19.17,74.44C11,74.44,6.62,81.06,6.62,90.87S11.07,107.65,19.17,107.65Z"/><path class="cls-1" d="M43.69,91.1c0-13.69,8-22.71,19.85-22.71s19.86,9,19.86,22.71-8,22.6-19.86,22.6S43.69,104.69,43.69,91.1Zm33,0c0-8.79-4.11-16.66-13.13-16.66S50.42,82.31,50.42,91.1s4.11,16.55,13.12,16.55S76.67,99.89,76.67,91.1Z"/><path class="cls-1" d="M85.55,69h7.07l9.48,33.56h.45L111.91,69h7.19l9.25,33.44h.45L138.28,69h7.07L132,112.79h-6.62l-9.59-33.67h-.68l-9.59,33.67H98.9Z"/><path class="cls-1" d="M147.49,91.22c0-13.47,7.87-22.83,19.74-22.83,9.14,0,18.84,5.59,18.84,21.91v2.86H154.25c.32,9.38,5.77,14.49,13.67,14.49,5.28,0,9.24-2.28,11-6.85l6.5,1.83c-2,6.62-8.56,11.07-17.46,11.07C155.25,113.7,147.49,104.69,147.49,91.22Zm31.73-3.88c0-7.42-4.68-12.9-12-12.9-7.7,0-12.52,6.08-13,12.9Z"/><path class="cls-1" d="M193.12,69h6.5v6.62h.46c1.6-4.34,6.16-7.3,11.41-7.3,1,0,2.77,0,3.54.11v6.85a20.09,20.09,0,0,0-4.11-.46c-6.39,0-11.07,4.34-11.07,10.27v27.74h-6.73Z"/><path class="cls-1" d="M216.38,91.22c0-13.47,7.87-22.83,19.74-22.83C245.25,68.39,255,74,255,90.3v2.86H223.14c.31,9.38,5.76,14.49,13.67,14.49,5.27,0,9.24-2.28,10.95-6.85l6.51,1.83c-2.06,6.62-8.56,11.07-17.46,11.07C224.14,113.7,216.38,104.69,216.38,91.22Zm31.72-3.88c0-7.42-4.67-12.9-12-12.9-7.7,0-12.53,6.08-13,12.9Z"/><path class="cls-1" d="M260,91c0-13.81,7.64-22.6,18.72-22.6,8.56,0,11.18,5.25,12.66,7.53h.57V54.35h6.74v58.44h-6.51v-6.74h-.8c-1.48,2.4-4.33,7.65-12.78,7.65C267.59,113.7,260,104.91,260,91ZM292,90.87c0-9.81-4.34-16.43-12.56-16.43-8.56,0-12.78,7.19-12.78,16.43s4.34,16.78,12.78,16.78C287.57,107.65,292,100.8,292,90.87Z"/><path class="cls-1" d="M329,54.35h6.73V75.92h.57c1.49-2.28,4.11-7.53,12.67-7.53,11.07,0,18.72,8.79,18.72,22.6S360,113.7,349,113.7c-8.45,0-11.3-5.25-12.79-7.65h-.8v6.74H329Zm19.17,53.3c8.45,0,12.79-7.42,12.79-16.78s-4.23-16.43-12.79-16.43c-8.22,0-12.55,6.62-12.55,16.43S340,107.65,348.12,107.65Z"/><path class="cls-1" d="M372.52,128.31l1.71-5.93c4.91,1.25,8,.62,10.39-5.94l1.25-3.42L369.67,69H377l12.1,34.93h.46L401.62,69l7.37.12-18.67,50.1c-2.51,6.71-6.82,9.93-12.89,9.93A13.26,13.26,0,0,1,372.52,128.31Z"/></g></svg>