<svg width="14" height="22" viewBox="0 0 14 22" fill="none" xmlns="http://www.w3.org/2000/svg">
  <path fill-rule="evenodd" clip-rule="evenodd"
    d="M12.9853 11.224C13.4466 12.1581 13.7431 13.158 13.843 14.1154C13.9493 15.1125 13.8478 16.1176 13.5503 17.02C13.2851 17.8312 12.8509 18.5979 12.2951 19.2366C11.8365 19.7635 11.306 20.2064 10.7179 20.5518C10.2646 20.8217 9.79022 21.0331 9.30937 21.1785C9.10345 21.2435 8.89546 21.2948 8.67942 21.3341C8.6502 21.3392 8.62075 21.3418 8.59153 21.3418C8.46798 21.3418 8.3488 21.2963 8.26114 21.2123C8.15278 21.1088 8.10837 20.9613 8.14242 20.8205C8.18269 20.6542 8.22686 20.4616 8.27195 20.253C8.33223 19.9479 8.40885 19.5316 8.45118 19.0748C8.49329 18.5712 8.49306 18.1368 8.45003 17.7495C8.40333 17.3094 8.30256 16.8918 8.14932 16.5064C8.01358 16.1676 7.83159 15.8286 7.5769 15.4408C7.33785 15.0779 7.07763 14.7235 6.78176 14.358C6.51395 14.0258 6.18954 13.6505 5.72939 13.1392L5.72226 13.1323C5.68298 13.0935 5.64756 13.0544 5.60572 13.0082L5.59733 12.999C5.54809 12.9442 5.49978 12.8906 5.43213 12.8194L5.3355 12.7166C5.33508 12.7161 5.32789 12.7083 5.31582 12.6951C5.25602 12.63 5.07617 12.4341 5.00304 12.3496C4.70809 12.0266 4.41014 11.6419 4.0993 11.1817C3.51123 10.2978 3.0849 9.33253 2.86472 8.38733C2.6328 7.41093 2.61141 6.35864 2.8049 5.42606C2.97447 4.57854 3.32947 3.76224 3.83104 3.06819C4.23965 2.50026 4.73178 2.01099 5.2934 1.61491C5.73376 1.30519 6.19391 1.05874 6.66166 0.881542C6.88437 0.796042 7.10938 0.725505 7.32888 0.672282C7.47589 0.636158 7.6328 0.670572 7.74784 0.763766C7.86265 0.856747 7.9204 0.996539 7.90222 1.13697C7.87876 1.31716 7.85483 1.52108 7.83366 1.7515C7.80444 2.09756 7.77614 2.51245 7.78995 2.94422C7.80398 3.4305 7.85621 3.87082 7.94571 4.2545C8.04004 4.67815 8.18913 5.06995 8.38837 5.422C8.56047 5.73108 8.76754 6.02755 9.06065 6.386C9.31098 6.69038 9.59972 7.00908 9.94299 7.35963C9.94944 7.36668 9.95588 7.37352 9.96209 7.38058C10.0069 7.43289 10.0568 7.47988 10.102 7.52238C10.1055 7.52573 10.1091 7.52905 10.1126 7.53234C10.1494 7.56718 10.1823 7.59839 10.2129 7.62959C10.2184 7.63515 10.2237 7.64071 10.2285 7.64648C10.2916 7.71787 10.3675 7.78926 10.4411 7.85809L10.5085 7.92158C10.5543 7.96326 10.6005 8.01028 10.6555 8.06885L10.8808 8.29756C10.9786 8.3914 11.1679 8.59488 11.3543 8.80735C12.0176 9.55953 12.5668 10.3733 12.9853 11.224ZM4.07843 15.6303C4.38006 15.9721 4.63084 16.344 4.82249 16.7335C5.03278 17.1597 5.16806 17.616 5.21408 18.0531C5.26147 18.5016 5.21408 18.9729 5.07995 19.3797C4.9587 19.7499 4.7606 20.1 4.50706 20.3911C4.29654 20.6327 4.05381 20.8353 3.78531 20.9924C3.63576 21.0815 3.47724 21.1585 3.31711 21.219C3.26143 21.2399 3.20253 21.2502 3.14432 21.2502C3.04101 21.2502 2.93886 21.2179 2.8558 21.1561C2.72581 21.0589 2.66254 20.9037 2.69084 20.7509C2.71983 20.5929 2.74031 20.4505 2.75273 20.3157C2.7716 20.0887 2.7716 19.8903 2.75204 19.714C2.73064 19.5118 2.6844 19.3205 2.61445 19.1443C2.55256 18.9896 2.46951 18.835 2.35378 18.6593C2.24541 18.4941 2.12692 18.3325 1.99118 18.1651C1.83496 17.9713 1.65205 17.7654 1.51009 17.6079L1.50296 17.6008C1.48755 17.5859 1.47098 17.5677 1.45165 17.5457C1.42934 17.5205 1.40656 17.4953 1.37412 17.4613L1.33316 17.4181L1.33385 17.4174L1.32344 17.4062C1.28295 17.3625 1.21025 17.2841 1.1751 17.2437C1.04442 17.1005 0.908675 16.925 0.766718 16.7153C0.4973 16.3102 0.302656 15.8693 0.202113 15.4373C0.0962781 14.9923 0.0868452 14.5113 0.175424 14.0847C0.273206 13.5967 0.484185 13.2303 0.643858 13.0095C0.829759 12.7509 1.05431 12.5277 1.31062 12.3467C1.47075 12.2343 1.63801 12.1393 1.80827 12.0639C1.95621 11.9987 2.13015 12.0111 2.26543 12.0968C2.40071 12.1825 2.47664 12.3287 2.46491 12.4803C2.45593 12.5951 2.44489 12.7691 2.45064 12.9531C2.45708 13.1747 2.48078 13.3757 2.52127 13.5503C2.56476 13.7446 2.6324 13.9229 2.72328 14.0836C2.82267 14.2614 2.93518 14.407 3.03227 14.5265C3.14708 14.6656 3.27753 14.8095 3.42915 14.964C3.43467 14.9696 3.43997 14.9754 3.44503 14.9811C3.46368 15.0027 3.48526 15.0234 3.50737 15.0445L3.5106 15.0476L3.5504 15.0861C3.55592 15.0914 3.56122 15.0972 3.56628 15.1028C3.59481 15.1344 3.6284 15.1662 3.66199 15.1975L3.69098 15.2246C3.71215 15.2445 3.73216 15.2646 3.75977 15.2934L3.86584 15.4012C3.9107 15.4443 4.0025 15.5437 4.07843 15.6303Z"
    fill="url(#paint0_linear_10007_2343)" />
  <defs>
    <linearGradient id="paint0_linear_10007_2343" x1="0.115234" y1="11" x2="13.884" y2="11"
      gradientUnits="userSpaceOnUse">
      <stop stop-color="#D67915" />
      <stop offset="1" stop-color="#ED9A4C" />
    </linearGradient>
  </defs>
</svg>