<svg width="160" height="160" viewBox="0 0 160 160" fill="none" xmlns="http://www.w3.org/2000/svg">
<path d="M160 0H0V160H160V0Z" fill="white"/>
<path d="M11.8517 5.92578H5.92578V11.8517H11.8517V5.92578Z" fill="black"/>
<path d="M17.7775 5.92578H11.8516V11.8517H17.7775V5.92578Z" fill="black"/>
<path d="M23.7033 5.92578H17.7773V11.8517H23.7033V5.92578Z" fill="black"/>
<path d="M29.6291 5.92578H23.7031V11.8517H29.6291V5.92578Z" fill="black"/>
<path d="M35.5548 5.92578H29.6289V11.8517H35.5548V5.92578Z" fill="black"/>
<path d="M41.4806 5.92578H35.5547V11.8517H41.4806V5.92578Z" fill="black"/>
<path d="M47.4064 5.92578H41.4805V11.8517H47.4064V5.92578Z" fill="black"/>
<path d="M65.1837 5.92578H59.2578V11.8517H65.1837V5.92578Z" fill="black"/>
<path d="M71.1095 5.92578H65.1836V11.8517H71.1095V5.92578Z" fill="black"/>
<path d="M77.0353 5.92578H71.1094V11.8517H77.0353V5.92578Z" fill="black"/>
<path d="M94.8166 5.92578H88.8906V11.8517H94.8166V5.92578Z" fill="black"/>
<path d="M106.668 5.92578H100.742V11.8517H106.668V5.92578Z" fill="black"/>
<path d="M118.52 5.92578H112.594V11.8517H118.52V5.92578Z" fill="black"/>
<path d="M124.445 5.92578H118.52V11.8517H124.445V5.92578Z" fill="black"/>
<path d="M130.371 5.92578H124.445V11.8517H130.371V5.92578Z" fill="black"/>
<path d="M136.297 5.92578H130.371V11.8517H136.297V5.92578Z" fill="black"/>
<path d="M142.223 5.92578H136.297V11.8517H142.223V5.92578Z" fill="black"/>
<path d="M148.149 5.92578H142.223V11.8517H148.149V5.92578Z" fill="black"/>
<path d="M154.074 5.92578H148.148V11.8517H154.074V5.92578Z" fill="black"/>
<path d="M11.8517 11.8516H5.92578V17.7775H11.8517V11.8516Z" fill="black"/>
<path d="M47.4064 11.8516H41.4805V17.7775H47.4064V11.8516Z" fill="black"/>
<path d="M77.0353 11.8516H71.1094V17.7775H77.0353V11.8516Z" fill="black"/>
<path d="M82.9611 11.8516H77.0352V17.7775H82.9611V11.8516Z" fill="black"/>
<path d="M88.8908 11.8516H82.9648V17.7775H88.8908V11.8516Z" fill="black"/>
<path d="M94.8166 11.8516H88.8906V17.7775H94.8166V11.8516Z" fill="black"/>
<path d="M106.668 11.8516H100.742V17.7775H106.668V11.8516Z" fill="black"/>
<path d="M118.52 11.8516H112.594V17.7775H118.52V11.8516Z" fill="black"/>
<path d="M154.074 11.8516H148.148V17.7775H154.074V11.8516Z" fill="black"/>
<path d="M11.8517 17.7773H5.92578V23.7033H11.8517V17.7773Z" fill="black"/>
<path d="M23.7033 17.7773H17.7773V23.7033H23.7033V17.7773Z" fill="black"/>
<path d="M29.6291 17.7773H23.7031V23.7033H29.6291V17.7773Z" fill="black"/>
<path d="M35.5548 17.7773H29.6289V23.7033H35.5548V17.7773Z" fill="black"/>
<path d="M47.4064 17.7773H41.4805V23.7033H47.4064V17.7773Z" fill="black"/>
<path d="M65.1837 17.7773H59.2578V23.7033H65.1837V17.7773Z" fill="black"/>
<path d="M71.1095 17.7773H65.1836V23.7033H71.1095V17.7773Z" fill="black"/>
<path d="M77.0353 17.7773H71.1094V23.7033H77.0353V17.7773Z" fill="black"/>
<path d="M94.8166 17.7773H88.8906V23.7033H94.8166V17.7773Z" fill="black"/>
<path d="M106.668 17.7773H100.742V23.7033H106.668V17.7773Z" fill="black"/>
<path d="M118.52 17.7773H112.594V23.7033H118.52V17.7773Z" fill="black"/>
<path d="M130.371 17.7773H124.445V23.7033H130.371V17.7773Z" fill="black"/>
<path d="M136.297 17.7773H130.371V23.7033H136.297V17.7773Z" fill="black"/>
<path d="M142.223 17.7773H136.297V23.7033H142.223V17.7773Z" fill="black"/>
<path d="M154.074 17.7773H148.148V23.7033H154.074V17.7773Z" fill="black"/>
<path d="M11.8517 23.7031H5.92578V29.6291H11.8517V23.7031Z" fill="black"/>
<path d="M23.7033 23.7031H17.7773V29.6291H23.7033V23.7031Z" fill="black"/>
<path d="M29.6291 23.7031H23.7031V29.6291H29.6291V23.7031Z" fill="black"/>
<path d="M35.5548 23.7031H29.6289V29.6291H35.5548V23.7031Z" fill="black"/>
<path d="M47.4064 23.7031H41.4805V29.6291H47.4064V23.7031Z" fill="black"/>
<path d="M59.258 23.7031H53.332V29.6291H59.258V23.7031Z" fill="black"/>
<path d="M71.1095 23.7031H65.1836V29.6291H71.1095V23.7031Z" fill="black"/>
<path d="M77.0353 23.7031H71.1094V29.6291H77.0353V23.7031Z" fill="black"/>
<path d="M88.8908 23.7031H82.9648V29.6291H88.8908V23.7031Z" fill="black"/>
<path d="M94.8166 23.7031H88.8906V29.6291H94.8166V23.7031Z" fill="black"/>
<path d="M100.742 23.7031H94.8164V29.6291H100.742V23.7031Z" fill="black"/>
<path d="M106.668 23.7031H100.742V29.6291H106.668V23.7031Z" fill="black"/>
<path d="M118.52 23.7031H112.594V29.6291H118.52V23.7031Z" fill="black"/>
<path d="M130.371 23.7031H124.445V29.6291H130.371V23.7031Z" fill="black"/>
<path d="M136.297 23.7031H130.371V29.6291H136.297V23.7031Z" fill="black"/>
<path d="M142.223 23.7031H136.297V29.6291H142.223V23.7031Z" fill="black"/>
<path d="M154.074 23.7031H148.148V29.6291H154.074V23.7031Z" fill="black"/>
<path d="M11.8517 29.6289H5.92578V35.5548H11.8517V29.6289Z" fill="black"/>
<path d="M23.7033 29.6289H17.7773V35.5548H23.7033V29.6289Z" fill="black"/>
<path d="M29.6291 29.6289H23.7031V35.5548H29.6291V29.6289Z" fill="black"/>
<path d="M35.5548 29.6289H29.6289V35.5548H35.5548V29.6289Z" fill="black"/>
<path d="M47.4064 29.6289H41.4805V35.5548H47.4064V29.6289Z" fill="black"/>
<path d="M59.258 29.6289H53.332V35.5548H59.258V29.6289Z" fill="black"/>
<path d="M71.1095 29.6289H65.1836V35.5548H71.1095V29.6289Z" fill="black"/>
<path d="M82.9611 29.6289H77.0352V35.5548H82.9611V29.6289Z" fill="black"/>
<path d="M88.8908 29.6289H82.9648V35.5548H88.8908V29.6289Z" fill="black"/>
<path d="M94.8166 29.6289H88.8906V35.5548H94.8166V29.6289Z" fill="black"/>
<path d="M106.668 29.6289H100.742V35.5548H106.668V29.6289Z" fill="black"/>
<path d="M118.52 29.6289H112.594V35.5548H118.52V29.6289Z" fill="black"/>
<path d="M130.371 29.6289H124.445V35.5548H130.371V29.6289Z" fill="black"/>
<path d="M136.297 29.6289H130.371V35.5548H136.297V29.6289Z" fill="black"/>
<path d="M142.223 29.6289H136.297V35.5548H142.223V29.6289Z" fill="black"/>
<path d="M154.074 29.6289H148.148V35.5548H154.074V29.6289Z" fill="black"/>
<path d="M11.8517 35.5547H5.92578V41.4806H11.8517V35.5547Z" fill="black"/>
<path d="M47.4064 35.5547H41.4805V41.4806H47.4064V35.5547Z" fill="black"/>
<path d="M65.1837 35.5547H59.2578V41.4806H65.1837V35.5547Z" fill="black"/>
<path d="M71.1095 35.5547H65.1836V41.4806H71.1095V35.5547Z" fill="black"/>
<path d="M118.52 35.5547H112.594V41.4806H118.52V35.5547Z" fill="black"/>
<path d="M154.074 35.5547H148.148V41.4806H154.074V35.5547Z" fill="black"/>
<path d="M11.8517 41.4805H5.92578V47.4064H11.8517V41.4805Z" fill="black"/>
<path d="M17.7775 41.4805H11.8516V47.4064H17.7775V41.4805Z" fill="black"/>
<path d="M23.7033 41.4805H17.7773V47.4064H23.7033V41.4805Z" fill="black"/>
<path d="M29.6291 41.4805H23.7031V47.4064H29.6291V41.4805Z" fill="black"/>
<path d="M35.5548 41.4805H29.6289V47.4064H35.5548V41.4805Z" fill="black"/>
<path d="M41.4806 41.4805H35.5547V47.4064H41.4806V41.4805Z" fill="black"/>
<path d="M47.4064 41.4805H41.4805V47.4064H47.4064V41.4805Z" fill="black"/>
<path d="M59.258 41.4805H53.332V47.4064H59.258V41.4805Z" fill="black"/>
<path d="M71.1095 41.4805H65.1836V47.4064H71.1095V41.4805Z" fill="black"/>
<path d="M82.9611 41.4805H77.0352V47.4064H82.9611V41.4805Z" fill="black"/>
<path d="M94.8166 41.4805H88.8906V47.4064H94.8166V41.4805Z" fill="black"/>
<path d="M106.668 41.4805H100.742V47.4064H106.668V41.4805Z" fill="black"/>
<path d="M118.52 41.4805H112.594V47.4064H118.52V41.4805Z" fill="black"/>
<path d="M124.445 41.4805H118.52V47.4064H124.445V41.4805Z" fill="black"/>
<path d="M130.371 41.4805H124.445V47.4064H130.371V41.4805Z" fill="black"/>
<path d="M136.297 41.4805H130.371V47.4064H136.297V41.4805Z" fill="black"/>
<path d="M142.223 41.4805H136.297V47.4064H142.223V41.4805Z" fill="black"/>
<path d="M148.149 41.4805H142.223V47.4064H148.149V41.4805Z" fill="black"/>
<path d="M154.074 41.4805H148.148V47.4064H154.074V41.4805Z" fill="black"/>
<path d="M65.1837 47.4062H59.2578V53.3322H65.1837V47.4062Z" fill="black"/>
<path d="M82.9611 47.4062H77.0352V53.3322H82.9611V47.4062Z" fill="black"/>
<path d="M106.668 47.4062H100.742V53.3322H106.668V47.4062Z" fill="black"/>
<path d="M11.8517 53.332H5.92578V59.258H11.8517V53.332Z" fill="black"/>
<path d="M17.7775 53.332H11.8516V59.258H17.7775V53.332Z" fill="black"/>
<path d="M41.4806 53.332H35.5547V59.258H41.4806V53.332Z" fill="black"/>
<path d="M47.4064 53.332H41.4805V59.258H47.4064V53.332Z" fill="black"/>
<path d="M53.3322 53.332H47.4062V59.258H53.3322V53.332Z" fill="black"/>
<path d="M65.1837 53.332H59.2578V59.258H65.1837V53.332Z" fill="black"/>
<path d="M71.1095 53.332H65.1836V59.258H71.1095V53.332Z" fill="black"/>
<path d="M82.9611 53.332H77.0352V59.258H82.9611V53.332Z" fill="black"/>
<path d="M88.8908 53.332H82.9648V59.258H88.8908V53.332Z" fill="black"/>
<path d="M94.8166 53.332H88.8906V59.258H94.8166V53.332Z" fill="black"/>
<path d="M100.742 53.332H94.8164V59.258H100.742V53.332Z" fill="black"/>
<path d="M106.668 53.332H100.742V59.258H106.668V53.332Z" fill="black"/>
<path d="M130.371 53.332H124.445V59.258H130.371V53.332Z" fill="black"/>
<path d="M136.297 53.332H130.371V59.258H136.297V53.332Z" fill="black"/>
<path d="M11.8517 59.2578H5.92578V65.1837H11.8517V59.2578Z" fill="black"/>
<path d="M29.6291 59.2578H23.7031V65.1837H29.6291V59.2578Z" fill="black"/>
<path d="M35.5548 59.2578H29.6289V65.1837H35.5548V59.2578Z" fill="black"/>
<path d="M41.4806 59.2578H35.5547V65.1837H41.4806V59.2578Z" fill="black"/>
<path d="M53.3322 59.2578H47.4062V65.1837H53.3322V59.2578Z" fill="black"/>
<path d="M59.258 59.2578H53.332V65.1837H59.258V59.2578Z" fill="black"/>
<path d="M71.1095 59.2578H65.1836V65.1837H71.1095V59.2578Z" fill="black"/>
<path d="M88.8908 59.2578H82.9648V65.1837H88.8908V59.2578Z" fill="black"/>
<path d="M100.742 59.2578H94.8164V65.1837H100.742V59.2578Z" fill="black"/>
<path d="M124.445 59.2578H118.52V65.1837H124.445V59.2578Z" fill="black"/>
<path d="M130.371 59.2578H124.445V65.1837H130.371V59.2578Z" fill="black"/>
<path d="M136.297 59.2578H130.371V65.1837H136.297V59.2578Z" fill="black"/>
<path d="M142.223 59.2578H136.297V65.1837H142.223V59.2578Z" fill="black"/>
<path d="M148.149 59.2578H142.223V65.1837H148.149V59.2578Z" fill="black"/>
<path d="M17.7775 65.1836H11.8516V71.1095H17.7775V65.1836Z" fill="black"/>
<path d="M23.7033 65.1836H17.7773V71.1095H23.7033V65.1836Z" fill="black"/>
<path d="M35.5548 65.1836H29.6289V71.1095H35.5548V65.1836Z" fill="black"/>
<path d="M47.4064 65.1836H41.4805V71.1095H47.4064V65.1836Z" fill="black"/>
<path d="M53.3322 65.1836H47.4062V71.1095H53.3322V65.1836Z" fill="black"/>
<path d="M65.1837 65.1836H59.2578V71.1095H65.1837V65.1836Z" fill="black"/>
<path d="M77.0353 65.1836H71.1094V71.1095H77.0353V65.1836Z" fill="black"/>
<path d="M82.9611 65.1836H77.0352V71.1095H82.9611V65.1836Z" fill="black"/>
<path d="M100.742 65.1836H94.8164V71.1095H100.742V65.1836Z" fill="black"/>
<path d="M112.594 65.1836H106.668V71.1095H112.594V65.1836Z" fill="black"/>
<path d="M118.52 65.1836H112.594V71.1095H118.52V65.1836Z" fill="black"/>
<path d="M130.371 65.1836H124.445V71.1095H130.371V65.1836Z" fill="black"/>
<path d="M136.297 65.1836H130.371V71.1095H136.297V65.1836Z" fill="black"/>
<path d="M148.149 65.1836H142.223V71.1095H148.149V65.1836Z" fill="black"/>
<path d="M154.074 65.1836H148.148V71.1095H154.074V65.1836Z" fill="black"/>
<path d="M17.7775 71.1094H11.8516V77.0353H17.7775V71.1094Z" fill="black"/>
<path d="M23.7033 71.1094H17.7773V77.0353H23.7033V71.1094Z" fill="black"/>
<path d="M41.4806 71.1094H35.5547V77.0353H41.4806V71.1094Z" fill="black"/>
<path d="M53.3322 71.1094H47.4062V77.0353H53.3322V71.1094Z" fill="black"/>
<path d="M59.258 71.1094H53.332V77.0353H59.258V71.1094Z" fill="black"/>
<path d="M71.1095 71.1094H65.1836V77.0353H71.1095V71.1094Z" fill="black"/>
<path d="M77.0353 71.1094H71.1094V77.0353H77.0353V71.1094Z" fill="black"/>
<path d="M100.742 71.1094H94.8164V77.0353H100.742V71.1094Z" fill="black"/>
<path d="M106.668 71.1094H100.742V77.0353H106.668V71.1094Z" fill="black"/>
<path d="M112.594 71.1094H106.668V77.0353H112.594V71.1094Z" fill="black"/>
<path d="M118.52 71.1094H112.594V77.0353H118.52V71.1094Z" fill="black"/>
<path d="M124.445 71.1094H118.52V77.0353H124.445V71.1094Z" fill="black"/>
<path d="M130.371 71.1094H124.445V77.0353H130.371V71.1094Z" fill="black"/>
<path d="M136.297 71.1094H130.371V77.0353H136.297V71.1094Z" fill="black"/>
<path d="M154.074 71.1094H148.148V77.0353H154.074V71.1094Z" fill="black"/>
<path d="M11.8517 77.0352H5.92578V82.9611H11.8517V77.0352Z" fill="black"/>
<path d="M17.7775 77.0352H11.8516V82.9611H17.7775V77.0352Z" fill="black"/>
<path d="M23.7033 77.0352H17.7773V82.9611H23.7033V77.0352Z" fill="black"/>
<path d="M29.6291 77.0352H23.7031V82.9611H29.6291V77.0352Z" fill="black"/>
<path d="M35.5548 77.0352H29.6289V82.9611H35.5548V77.0352Z" fill="black"/>
<path d="M41.4806 77.0352H35.5547V82.9611H41.4806V77.0352Z" fill="black"/>
<path d="M47.4064 77.0352H41.4805V82.9611H47.4064V77.0352Z" fill="black"/>
<path d="M65.1837 77.0352H59.2578V82.9611H65.1837V77.0352Z" fill="black"/>
<path d="M71.1095 77.0352H65.1836V82.9611H71.1095V77.0352Z" fill="black"/>
<path d="M94.8166 77.0352H88.8906V82.9611H94.8166V77.0352Z" fill="black"/>
<path d="M106.668 77.0352H100.742V82.9611H106.668V77.0352Z" fill="black"/>
<path d="M118.52 77.0352H112.594V82.9611H118.52V77.0352Z" fill="black"/>
<path d="M124.445 77.0352H118.52V82.9611H124.445V77.0352Z" fill="black"/>
<path d="M154.074 77.0352H148.148V82.9611H154.074V77.0352Z" fill="black"/>
<path d="M11.8517 82.9648H5.92578V88.8908H11.8517V82.9648Z" fill="black"/>
<path d="M23.7033 82.9648H17.7773V88.8908H23.7033V82.9648Z" fill="black"/>
<path d="M53.3322 82.9648H47.4062V88.8908H53.3322V82.9648Z" fill="black"/>
<path d="M59.258 82.9648H53.332V88.8908H59.258V82.9648Z" fill="black"/>
<path d="M65.1837 82.9648H59.2578V88.8908H65.1837V82.9648Z" fill="black"/>
<path d="M71.1095 82.9648H65.1836V88.8908H71.1095V82.9648Z" fill="black"/>
<path d="M82.9611 82.9648H77.0352V88.8908H82.9611V82.9648Z" fill="black"/>
<path d="M88.8908 82.9648H82.9648V88.8908H88.8908V82.9648Z" fill="black"/>
<path d="M94.8166 82.9648H88.8906V88.8908H94.8166V82.9648Z" fill="black"/>
<path d="M100.742 82.9648H94.8164V88.8908H100.742V82.9648Z" fill="black"/>
<path d="M124.445 82.9648H118.52V88.8908H124.445V82.9648Z" fill="black"/>
<path d="M148.149 82.9648H142.223V88.8908H148.149V82.9648Z" fill="black"/>
<path d="M11.8517 88.8906H5.92578V94.8166H11.8517V88.8906Z" fill="black"/>
<path d="M23.7033 88.8906H17.7773V94.8166H23.7033V88.8906Z" fill="black"/>
<path d="M29.6291 88.8906H23.7031V94.8166H29.6291V88.8906Z" fill="black"/>
<path d="M41.4806 88.8906H35.5547V94.8166H41.4806V88.8906Z" fill="black"/>
<path d="M47.4064 88.8906H41.4805V94.8166H47.4064V88.8906Z" fill="black"/>
<path d="M53.3322 88.8906H47.4062V94.8166H53.3322V88.8906Z" fill="black"/>
<path d="M59.258 88.8906H53.332V94.8166H59.258V88.8906Z" fill="black"/>
<path d="M71.1095 88.8906H65.1836V94.8166H71.1095V88.8906Z" fill="black"/>
<path d="M100.742 88.8906H94.8164V94.8166H100.742V88.8906Z" fill="black"/>
<path d="M106.668 88.8906H100.742V94.8166H106.668V88.8906Z" fill="black"/>
<path d="M112.594 88.8906H106.668V94.8166H112.594V88.8906Z" fill="black"/>
<path d="M124.445 88.8906H118.52V94.8166H124.445V88.8906Z" fill="black"/>
<path d="M130.371 88.8906H124.445V94.8166H130.371V88.8906Z" fill="black"/>
<path d="M136.297 88.8906H130.371V94.8166H136.297V88.8906Z" fill="black"/>
<path d="M148.149 88.8906H142.223V94.8166H148.149V88.8906Z" fill="black"/>
<path d="M154.074 88.8906H148.148V94.8166H154.074V88.8906Z" fill="black"/>
<path d="M11.8517 94.8164H5.92578V100.742H11.8517V94.8164Z" fill="black"/>
<path d="M23.7033 94.8164H17.7773V100.742H23.7033V94.8164Z" fill="black"/>
<path d="M29.6291 94.8164H23.7031V100.742H29.6291V94.8164Z" fill="black"/>
<path d="M35.5548 94.8164H29.6289V100.742H35.5548V94.8164Z" fill="black"/>
<path d="M71.1095 94.8164H65.1836V100.742H71.1095V94.8164Z" fill="black"/>
<path d="M82.9611 94.8164H77.0352V100.742H82.9611V94.8164Z" fill="black"/>
<path d="M94.8166 94.8164H88.8906V100.742H94.8166V94.8164Z" fill="black"/>
<path d="M100.742 94.8164H94.8164V100.742H100.742V94.8164Z" fill="black"/>
<path d="M106.668 94.8164H100.742V100.742H106.668V94.8164Z" fill="black"/>
<path d="M118.52 94.8164H112.594V100.742H118.52V94.8164Z" fill="black"/>
<path d="M124.445 94.8164H118.52V100.742H124.445V94.8164Z" fill="black"/>
<path d="M142.223 94.8164H136.297V100.742H142.223V94.8164Z" fill="black"/>
<path d="M154.074 94.8164H148.148V100.742H154.074V94.8164Z" fill="black"/>
<path d="M11.8517 100.742H5.92578V106.668H11.8517V100.742Z" fill="black"/>
<path d="M23.7033 100.742H17.7773V106.668H23.7033V100.742Z" fill="black"/>
<path d="M29.6291 100.742H23.7031V106.668H29.6291V100.742Z" fill="black"/>
<path d="M47.4064 100.742H41.4805V106.668H47.4064V100.742Z" fill="black"/>
<path d="M82.9611 100.742H77.0352V106.668H82.9611V100.742Z" fill="black"/>
<path d="M88.8908 100.742H82.9648V106.668H88.8908V100.742Z" fill="black"/>
<path d="M94.8166 100.742H88.8906V106.668H94.8166V100.742Z" fill="black"/>
<path d="M106.668 100.742H100.742V106.668H106.668V100.742Z" fill="black"/>
<path d="M112.594 100.742H106.668V106.668H112.594V100.742Z" fill="black"/>
<path d="M118.52 100.742H112.594V106.668H118.52V100.742Z" fill="black"/>
<path d="M124.445 100.742H118.52V106.668H124.445V100.742Z" fill="black"/>
<path d="M130.371 100.742H124.445V106.668H130.371V100.742Z" fill="black"/>
<path d="M142.223 100.742H136.297V106.668H142.223V100.742Z" fill="black"/>
<path d="M59.258 106.668H53.332V112.594H59.258V106.668Z" fill="black"/>
<path d="M88.8908 106.668H82.9648V112.594H88.8908V106.668Z" fill="black"/>
<path d="M106.668 106.668H100.742V112.594H106.668V106.668Z" fill="black"/>
<path d="M130.371 106.668H124.445V112.594H130.371V106.668Z" fill="black"/>
<path d="M142.223 106.668H136.297V112.594H142.223V106.668Z" fill="black"/>
<path d="M11.8517 112.594H5.92578V118.52H11.8517V112.594Z" fill="black"/>
<path d="M17.7775 112.594H11.8516V118.52H17.7775V112.594Z" fill="black"/>
<path d="M23.7033 112.594H17.7773V118.52H23.7033V112.594Z" fill="black"/>
<path d="M29.6291 112.594H23.7031V118.52H29.6291V112.594Z" fill="black"/>
<path d="M35.5548 112.594H29.6289V118.52H35.5548V112.594Z" fill="black"/>
<path d="M41.4806 112.594H35.5547V118.52H41.4806V112.594Z" fill="black"/>
<path d="M47.4064 112.594H41.4805V118.52H47.4064V112.594Z" fill="black"/>
<path d="M59.258 112.594H53.332V118.52H59.258V112.594Z" fill="black"/>
<path d="M65.1837 112.594H59.2578V118.52H65.1837V112.594Z" fill="black"/>
<path d="M82.9611 112.594H77.0352V118.52H82.9611V112.594Z" fill="black"/>
<path d="M106.668 112.594H100.742V118.52H106.668V112.594Z" fill="black"/>
<path d="M118.52 112.594H112.594V118.52H118.52V112.594Z" fill="black"/>
<path d="M130.371 112.594H124.445V118.52H130.371V112.594Z" fill="black"/>
<path d="M136.297 112.594H130.371V118.52H136.297V112.594Z" fill="black"/>
<path d="M154.074 112.594H148.148V118.52H154.074V112.594Z" fill="black"/>
<path d="M11.8517 118.52H5.92578V124.445H11.8517V118.52Z" fill="black"/>
<path d="M47.4064 118.52H41.4805V124.445H47.4064V118.52Z" fill="black"/>
<path d="M59.258 118.52H53.332V124.445H59.258V118.52Z" fill="black"/>
<path d="M77.0353 118.52H71.1094V124.445H77.0353V118.52Z" fill="black"/>
<path d="M100.742 118.52H94.8164V124.445H100.742V118.52Z" fill="black"/>
<path d="M106.668 118.52H100.742V124.445H106.668V118.52Z" fill="black"/>
<path d="M130.371 118.52H124.445V124.445H130.371V118.52Z" fill="black"/>
<path d="M154.074 118.52H148.148V124.445H154.074V118.52Z" fill="black"/>
<path d="M11.8517 124.445H5.92578V130.371H11.8517V124.445Z" fill="black"/>
<path d="M23.7033 124.445H17.7773V130.371H23.7033V124.445Z" fill="black"/>
<path d="M29.6291 124.445H23.7031V130.371H29.6291V124.445Z" fill="black"/>
<path d="M35.5548 124.445H29.6289V130.371H35.5548V124.445Z" fill="black"/>
<path d="M47.4064 124.445H41.4805V130.371H47.4064V124.445Z" fill="black"/>
<path d="M65.1837 124.445H59.2578V130.371H65.1837V124.445Z" fill="black"/>
<path d="M71.1095 124.445H65.1836V130.371H71.1095V124.445Z" fill="black"/>
<path d="M77.0353 124.445H71.1094V130.371H77.0353V124.445Z" fill="black"/>
<path d="M82.9611 124.445H77.0352V130.371H82.9611V124.445Z" fill="black"/>
<path d="M88.8908 124.445H82.9648V130.371H88.8908V124.445Z" fill="black"/>
<path d="M94.8166 124.445H88.8906V130.371H94.8166V124.445Z" fill="black"/>
<path d="M100.742 124.445H94.8164V130.371H100.742V124.445Z" fill="black"/>
<path d="M106.668 124.445H100.742V130.371H106.668V124.445Z" fill="black"/>
<path d="M112.594 124.445H106.668V130.371H112.594V124.445Z" fill="black"/>
<path d="M118.52 124.445H112.594V130.371H118.52V124.445Z" fill="black"/>
<path d="M124.445 124.445H118.52V130.371H124.445V124.445Z" fill="black"/>
<path d="M130.371 124.445H124.445V130.371H130.371V124.445Z" fill="black"/>
<path d="M136.297 124.445H130.371V130.371H136.297V124.445Z" fill="black"/>
<path d="M142.223 124.445H136.297V130.371H142.223V124.445Z" fill="black"/>
<path d="M11.8517 130.371H5.92578V136.297H11.8517V130.371Z" fill="black"/>
<path d="M23.7033 130.371H17.7773V136.297H23.7033V130.371Z" fill="black"/>
<path d="M29.6291 130.371H23.7031V136.297H29.6291V130.371Z" fill="black"/>
<path d="M35.5548 130.371H29.6289V136.297H35.5548V130.371Z" fill="black"/>
<path d="M47.4064 130.371H41.4805V136.297H47.4064V130.371Z" fill="black"/>
<path d="M65.1837 130.371H59.2578V136.297H65.1837V130.371Z" fill="black"/>
<path d="M82.9611 130.371H77.0352V136.297H82.9611V130.371Z" fill="black"/>
<path d="M94.8166 130.371H88.8906V136.297H94.8166V130.371Z" fill="black"/>
<path d="M112.594 130.371H106.668V136.297H112.594V130.371Z" fill="black"/>
<path d="M118.52 130.371H112.594V136.297H118.52V130.371Z" fill="black"/>
<path d="M136.297 130.371H130.371V136.297H136.297V130.371Z" fill="black"/>
<path d="M148.149 130.371H142.223V136.297H148.149V130.371Z" fill="black"/>
<path d="M154.074 130.371H148.148V136.297H154.074V130.371Z" fill="black"/>
<path d="M11.8517 136.297H5.92578V142.223H11.8517V136.297Z" fill="black"/>
<path d="M23.7033 136.297H17.7773V142.223H23.7033V136.297Z" fill="black"/>
<path d="M29.6291 136.297H23.7031V142.223H29.6291V136.297Z" fill="black"/>
<path d="M35.5548 136.297H29.6289V142.223H35.5548V136.297Z" fill="black"/>
<path d="M47.4064 136.297H41.4805V142.223H47.4064V136.297Z" fill="black"/>
<path d="M71.1095 136.297H65.1836V142.223H71.1095V136.297Z" fill="black"/>
<path d="M106.668 136.297H100.742V142.223H106.668V136.297Z" fill="black"/>
<path d="M124.445 136.297H118.52V142.223H124.445V136.297Z" fill="black"/>
<path d="M142.223 136.297H136.297V142.223H142.223V136.297Z" fill="black"/>
<path d="M154.074 136.297H148.148V142.223H154.074V136.297Z" fill="black"/>
<path d="M11.8517 142.223H5.92578V148.149H11.8517V142.223Z" fill="black"/>
<path d="M47.4064 142.223H41.4805V148.149H47.4064V142.223Z" fill="black"/>
<path d="M59.258 142.223H53.332V148.149H59.258V142.223Z" fill="black"/>
<path d="M65.1837 142.223H59.2578V148.149H65.1837V142.223Z" fill="black"/>
<path d="M77.0353 142.223H71.1094V148.149H77.0353V142.223Z" fill="black"/>
<path d="M94.8166 142.223H88.8906V148.149H94.8166V142.223Z" fill="black"/>
<path d="M106.668 142.223H100.742V148.149H106.668V142.223Z" fill="black"/>
<path d="M124.445 142.223H118.52V148.149H124.445V142.223Z" fill="black"/>
<path d="M130.371 142.223H124.445V148.149H130.371V142.223Z" fill="black"/>
<path d="M154.074 142.223H148.148V148.149H154.074V142.223Z" fill="black"/>
<path d="M11.8517 148.148H5.92578V154.074H11.8517V148.148Z" fill="black"/>
<path d="M17.7775 148.148H11.8516V154.074H17.7775V148.148Z" fill="black"/>
<path d="M23.7033 148.148H17.7773V154.074H23.7033V148.148Z" fill="black"/>
<path d="M29.6291 148.148H23.7031V154.074H29.6291V148.148Z" fill="black"/>
<path d="M35.5548 148.148H29.6289V154.074H35.5548V148.148Z" fill="black"/>
<path d="M41.4806 148.148H35.5547V154.074H41.4806V148.148Z" fill="black"/>
<path d="M47.4064 148.148H41.4805V154.074H47.4064V148.148Z" fill="black"/>
<path d="M59.258 148.148H53.332V154.074H59.258V148.148Z" fill="black"/>
<path d="M71.1095 148.148H65.1836V154.074H71.1095V148.148Z" fill="black"/>
<path d="M77.0353 148.148H71.1094V154.074H77.0353V148.148Z" fill="black"/>
<path d="M82.9611 148.148H77.0352V154.074H82.9611V148.148Z" fill="black"/>
<path d="M106.668 148.148H100.742V154.074H106.668V148.148Z" fill="black"/>
<path d="M118.52 148.148H112.594V154.074H118.52V148.148Z" fill="black"/>
<path d="M136.297 148.148H130.371V154.074H136.297V148.148Z" fill="black"/>
<path d="M154.074 148.148H148.148V154.074H154.074V148.148Z" fill="black"/>
</svg>
