<svg width="100" height="100" viewBox="0 0 100 100" fill="none" xmlns="http://www.w3.org/2000/svg">
<rect width="100" height="100" rx="20.5078" fill="url(#paint0_linear_4590_41900)"/>
<path fill-rule="evenodd" clip-rule="evenodd" d="M67.4576 50.6533C68.803 53.3777 69.668 56.2942 69.9593 59.0865C70.2693 61.9948 69.9733 64.9262 69.1057 67.5584C68.332 69.9243 67.0657 72.1606 65.4444 74.0234C64.107 75.5601 62.5595 76.8519 60.8443 77.8594C59.5224 78.6468 58.1386 79.2633 56.7361 79.6873C56.1355 79.8768 55.5289 80.0264 54.8988 80.1411C54.8136 80.1561 54.7277 80.1636 54.6425 80.1636C54.2821 80.1636 53.9345 80.0308 53.6788 79.7858C53.3628 79.484 53.2332 79.0539 53.3326 78.643C53.45 78.158 53.5788 77.5963 53.7104 76.9878C53.8862 76.0982 54.1096 74.8837 54.2331 73.5514C54.3559 72.0826 54.3552 70.8158 54.2298 69.6861C54.0935 68.4025 53.7996 67.1843 53.3527 66.0603C52.9568 65.0721 52.426 64.0833 51.6831 62.9524C50.9859 61.8938 50.2269 60.8602 49.3639 59.7941C48.5828 58.8253 47.6367 57.7305 46.2945 56.2393L46.2737 56.2193C46.1592 56.1059 46.0558 55.9919 45.9338 55.8573L45.9094 55.8303C45.7658 55.6707 45.6248 55.5142 45.4275 55.3066L45.1457 55.0068C45.1445 55.0053 45.1235 54.9825 45.0884 54.9442C44.914 54.7543 44.3893 54.1828 44.176 53.9363C43.3157 52.9943 42.4467 51.8721 41.5401 50.5299C39.8249 47.952 38.5815 45.1366 37.9393 42.3797C37.2628 39.5319 37.2004 36.4627 37.7648 33.7427C38.2593 31.2708 39.2948 28.8899 40.7577 26.8656C41.9495 25.2091 43.3849 23.7821 45.0229 22.6268C46.3073 21.7235 47.6494 21.0047 49.0137 20.4878C49.6632 20.2385 50.3195 20.0327 50.9597 19.8775C51.3885 19.7721 51.8462 19.8725 52.1817 20.1443C52.5166 20.4155 52.685 20.8232 52.632 21.2328C52.5635 21.7584 52.4937 22.3531 52.432 23.0252C52.3468 24.0345 52.2642 25.2446 52.3045 26.504C52.3454 27.9223 52.4978 29.2066 52.7588 30.3256C53.0339 31.5613 53.4688 32.704 54.0499 33.7308C54.5519 34.6323 55.1558 35.497 56.0107 36.5425C56.7408 37.4303 57.583 38.3598 58.5842 39.3823C58.603 39.4028 58.6218 39.4228 58.6399 39.4434C58.7705 39.5959 58.9162 39.733 59.0479 39.8569C59.0583 39.8667 59.0686 39.8764 59.0788 39.886C59.1862 39.9876 59.2821 40.0786 59.3714 40.1697C59.3875 40.1859 59.4029 40.2021 59.417 40.2189C59.6009 40.4271 59.8223 40.6354 60.0371 40.8361L60.2337 41.0213C60.3672 41.1428 60.5021 41.28 60.6625 41.4508L61.3194 42.1179C61.6046 42.3916 62.1569 42.9851 62.7005 43.6048C64.6351 45.7986 66.2369 48.1721 67.4576 50.6533ZM41.4792 63.5046C42.359 64.5015 43.0904 65.5862 43.6494 66.7221C44.2628 67.9653 44.6573 69.2963 44.7916 70.5712C44.9298 71.8792 44.7916 73.2538 44.4003 74.4402C44.0467 75.52 43.4689 76.5412 42.7294 77.3903C42.1154 78.0948 41.4074 78.6858 40.6243 79.1441C40.1881 79.404 39.7258 79.6285 39.2587 79.8049C39.0963 79.866 38.9245 79.8959 38.7548 79.8959C38.4534 79.8959 38.1555 79.8018 37.9133 79.6216C37.5341 79.3379 37.3496 78.8853 37.4321 78.4396C37.5167 77.9789 37.5764 77.5636 37.6126 77.1703C37.6676 76.5082 37.6676 75.9296 37.6106 75.4153C37.5482 74.8255 37.4133 74.2676 37.2093 73.7538C37.0288 73.3025 36.7866 72.8517 36.449 72.3393C36.1329 71.8574 35.7874 71.386 35.3914 70.8979C34.9358 70.3324 34.4023 69.7321 33.9883 69.2726L33.9675 69.252C33.9225 69.2084 33.8742 69.1554 33.8178 69.0912C33.7527 69.0176 33.6863 68.944 33.5917 68.8449L33.4722 68.719L33.4742 68.7171L33.4442 68.6847C33.3261 68.5574 33.1138 68.3284 33.0112 68.2103C32.63 67.7926 32.2341 67.2807 31.8201 66.6691C31.0343 65.4877 30.4666 64.2016 30.1733 62.9416C29.8646 61.6436 29.8371 60.2409 30.0955 58.9965C30.3807 57.5732 30.996 56.5047 31.4617 55.8607C32.004 55.1063 32.6589 54.4554 33.4065 53.9274C33.8735 53.5995 34.3614 53.3227 34.8579 53.1026C35.2894 52.9124 35.7967 52.9486 36.1913 53.1986C36.5859 53.4486 36.8074 53.875 36.7731 54.317C36.747 54.6518 36.7147 55.1593 36.7315 55.6961C36.7503 56.3426 36.8194 56.9286 36.9375 57.438C37.0644 58.0047 37.2617 58.5246 37.5267 58.9934C37.8166 59.5121 38.1448 59.9367 38.4279 60.2852C38.7628 60.691 39.1433 61.1106 39.5855 61.5613C39.6016 61.5776 39.6171 61.5944 39.6318 61.6112C39.6862 61.6742 39.7491 61.7344 39.8136 61.7961L39.8231 61.8051L39.9392 61.9173C39.9553 61.9329 39.9707 61.9497 39.9855 61.966C40.0687 62.0582 40.1666 62.1511 40.2646 62.2421L40.3492 62.3213C40.4109 62.3793 40.4693 62.4379 40.5498 62.5221L40.8592 62.8363C40.99 62.9622 41.2578 63.2521 41.4792 63.5046Z" fill="#F0EFED"/>
<defs>
<linearGradient id="paint0_linear_4590_41900" x1="56.8359" y1="1.36719" x2="50" y2="100" gradientUnits="userSpaceOnUse">
<stop stop-color="#2F2F2F"/>
<stop offset="1" stop-color="#171411"/>
</linearGradient>
</defs>
</svg>
