<svg width="28" height="28" viewBox="0 0 28 28" fill="none" xmlns="http://www.w3.org/2000/svg">
<path d="M13.9987 2.33203C20.442 2.33203 25.6654 7.55538 25.6654 13.9987C25.6654 20.442 20.442 25.6654 13.9987 25.6654C7.55538 25.6654 2.33203 20.442 2.33203 13.9987C2.33203 7.55538 7.55538 2.33203 13.9987 2.33203ZM14.9091 8.71249L14.8109 8.62777C14.5065 8.40185 14.0885 8.39906 13.7813 8.6194L13.6716 8.71249L13.5869 8.81063C13.361 9.11512 13.3582 9.53303 13.5786 9.84032L13.6716 9.94993L16.8445 13.1229H9.03954L8.92081 13.1309C8.53255 13.1835 8.2252 13.4909 8.17253 13.8791L8.16454 13.9979L8.17253 14.1166C8.2252 14.5049 8.53255 14.8122 8.92081 14.8649L9.03954 14.8729H16.8445L13.6709 18.0467L13.5862 18.1448C13.332 18.4873 13.3601 18.9734 13.6707 19.2841C13.9813 19.5948 14.4674 19.6231 14.81 19.369L14.9081 19.2843L19.5766 14.6177L19.6613 14.5195C19.8873 14.2151 19.8902 13.7971 19.6698 13.4897L19.5767 13.3801L14.9091 8.71249L14.8109 8.62777L14.9091 8.71249Z" fill="#F0EFED"/>
</svg>
