<svg width="76" height="63" viewBox="0 0 76 63" fill="none" xmlns="http://www.w3.org/2000/svg">
<path fill-rule="evenodd" clip-rule="evenodd" d="M70.8529 44.8331H4.78325C4.1317 44.8331 3.60338 44.3048 3.60338 43.6532V1.17987C3.60338 0.528322 4.1317 0 4.78325 0H70.853C71.5045 0 72.0329 0.528322 72.0329 1.17987V43.6532C72.0327 44.3049 71.5044 44.8331 70.8529 44.8331ZM38.7708 6.55176L38.2977 5.13333C38.2365 4.94969 37.9765 4.94969 37.9155 5.13333L37.4423 6.55176L35.9472 6.56339C35.7535 6.56486 35.6733 6.81185 35.829 6.92692L37.0319 7.81517L36.5809 9.24069C36.5225 9.42526 36.7328 9.57789 36.8902 9.46536L38.1066 8.59582L39.3229 9.46536C39.4805 9.57802 39.6906 9.42513 39.6322 9.24069L39.1813 7.81517L40.3841 6.92692C40.5398 6.81185 40.4596 6.56486 40.266 6.56339L38.7708 6.55176ZM38.7708 37.0058L38.2977 35.5873C38.2365 35.4037 37.9765 35.4037 37.9155 35.5873L37.4423 37.0058L35.9472 37.0174C35.7535 37.0189 35.6733 37.2658 35.829 37.3809L37.0319 38.2692L36.5809 39.6947C36.5225 39.8793 36.7328 40.0319 36.8902 39.9194L38.1066 39.0498L39.3229 39.9194C39.4805 40.032 39.6906 39.8791 39.6322 39.6947L39.1813 38.2692L40.3841 37.3809C40.5398 37.2658 40.4596 37.0189 40.266 37.0174L38.7708 37.0058ZM53.5245 20.3601L53.9976 21.7786L55.4928 21.7902C55.6864 21.7916 55.7666 22.0386 55.6109 22.1537L54.408 23.042L54.859 24.4675C54.9174 24.6519 54.7073 24.8048 54.5497 24.6921L53.3334 23.8226L52.117 24.6921C51.9596 24.8047 51.7493 24.652 51.8077 24.4675L52.2587 23.042L51.0558 22.1537C50.9001 22.0386 50.9803 21.7916 51.174 21.7902L52.6691 21.7786L53.1422 20.3601C53.2033 20.1765 53.4633 20.1765 53.5245 20.3601ZM23.5436 21.7786L23.0705 20.3601C23.0094 20.1765 22.7494 20.1765 22.6882 20.3601L22.2151 21.7786L20.72 21.7902C20.5263 21.7916 20.4461 22.0386 20.6018 22.1537L21.8047 23.042L21.3537 24.4675C21.2953 24.652 21.5056 24.8047 21.663 24.6921L22.8794 23.8226L24.0957 24.6921C24.2533 24.8048 24.4634 24.6519 24.405 24.4675L23.954 23.042L25.1569 22.1537C25.3126 22.0386 25.2324 21.7916 25.0388 21.7902L23.5436 21.7786ZM25.3565 12.4085L25.8297 13.8269L27.3248 13.8385C27.5185 13.84 27.5987 14.087 27.443 14.2021L26.2401 15.0903L26.691 16.5158C26.7495 16.7003 26.5394 16.8532 26.3818 16.7405L25.1654 15.871L23.9491 16.7405C23.7916 16.853 23.5814 16.7004 23.6398 16.5158L24.0907 15.0903L22.8879 14.2021C22.7322 14.087 22.8124 13.84 23.006 13.8385L24.5012 13.8269L24.9743 12.4085C25.0355 12.2248 25.2952 12.2248 25.3565 12.4085ZM52.2033 29.0541L51.7302 27.6357C51.669 27.452 51.4092 27.452 51.348 27.6357L50.8749 29.0541L49.3797 29.0658C49.186 29.0672 49.1058 29.3142 49.2615 29.4293L50.4644 30.3175L50.0135 31.743C49.9551 31.9276 50.1653 32.0802 50.3227 31.9677L51.5391 31.0982L52.7555 31.9677C52.913 32.0804 53.1231 31.9275 53.0647 31.743L52.6138 30.3175L53.8166 29.4293C53.9723 29.3142 53.8922 29.0672 53.6985 29.0658L52.2033 29.0541ZM46.157 6.83524L46.6301 8.25368L48.1253 8.2653C48.3189 8.26677 48.3991 8.51376 48.2434 8.62883L47.0406 9.51708L47.4915 10.9426C47.5499 11.127 47.3398 11.2799 47.1822 11.1673L45.9659 10.2977L44.7495 11.1673C44.5921 11.2798 44.3818 11.1272 44.4402 10.9426L44.8912 9.51708L43.6883 8.62883C43.5326 8.51376 43.6128 8.26677 43.8065 8.2653L45.3016 8.25368L45.7747 6.83524C45.8358 6.6516 46.0955 6.6516 46.157 6.83524ZM31.4029 34.6278L30.9298 33.2093C30.8684 33.0257 30.6087 33.0257 30.5475 33.2093L30.0744 34.6278L28.5793 34.6394C28.3856 34.6409 28.3054 34.8879 28.4611 35.0029L29.664 35.8912L29.213 37.3167C29.1546 37.5013 29.3649 37.6539 29.5223 37.5414L30.7387 36.6718L31.955 37.5414C32.1126 37.654 32.3227 37.5011 32.2643 37.3167L31.8133 35.8912L33.0162 35.0029C33.1719 34.8879 33.0917 34.6409 32.8981 34.6394L31.4029 34.6278ZM51.348 12.4085L50.8749 13.8269L49.3797 13.8385C49.186 13.84 49.1058 14.087 49.2615 14.2021L50.4644 15.0903L50.0135 16.5158C49.9551 16.7003 50.1652 16.8532 50.3227 16.7405L51.5391 15.871L52.7555 16.7405C52.9129 16.853 53.1231 16.7004 53.0647 16.5158L52.6138 15.0903L53.8166 14.2021C53.9723 14.087 53.8922 13.84 53.6985 13.8385L52.2033 13.8269L51.7302 12.4085C51.669 12.2248 51.4092 12.2248 51.348 12.4085ZM24.5012 29.0541L24.9743 27.6357C25.0355 27.452 25.2952 27.452 25.3565 27.6357L25.8297 29.0541L27.3248 29.0658C27.5185 29.0672 27.5987 29.3142 27.443 29.4293L26.2401 30.3175L26.691 31.743C26.7495 31.9276 26.5392 32.0802 26.3818 31.9677L25.1654 31.0982L23.9491 31.9677C23.7915 32.0804 23.5814 31.9275 23.6398 31.743L24.0907 30.3175L22.8879 29.4293C22.7322 29.3142 22.8124 29.0672 23.006 29.0658L24.5012 29.0541ZM30.5475 6.83524L30.0744 8.25368L28.5793 8.2653C28.3856 8.26677 28.3054 8.51376 28.4611 8.62883L29.664 9.51708L29.213 10.9426C29.1546 11.127 29.3647 11.2799 29.5223 11.1673L30.7387 10.2977L31.955 11.1673C32.1125 11.2798 32.3227 11.1272 32.2643 10.9426L31.8133 9.51708L33.0162 8.62883C33.1719 8.51376 33.0917 8.26677 32.8981 8.2653L31.4029 8.25368L30.9298 6.83524C30.8684 6.6516 30.6087 6.6516 30.5475 6.83524ZM45.3014 34.6278L45.7745 33.2093C45.8357 33.0257 46.0954 33.0257 46.1568 33.2093L46.6299 34.6278L48.1251 34.6394C48.3187 34.6409 48.3989 34.8879 48.2432 35.0029L47.0403 35.8912L47.4913 37.3167C47.5497 37.5013 47.3395 37.6539 47.182 37.5414L45.9656 36.6718L44.7493 37.5414C44.5917 37.654 44.3816 37.5011 44.44 37.3167L44.891 35.8912L43.6881 35.0029C43.5324 34.8879 43.6126 34.6409 43.8063 34.6394L45.3014 34.6278ZM0 51.7341V59.9831H5.22008V58.9117H1.2446V56.3862H4.90188V55.3189H1.2446V52.8055H5.17175V51.7341H0ZM10.5432 53.7963V57.4174C10.5459 57.7664 10.4721 58.0564 10.3217 58.2874C10.174 58.5156 9.98739 58.6861 9.76184 58.7989C9.53896 58.9117 9.31474 58.9681 9.08919 58.9681C8.71594 58.9681 8.41251 58.8432 8.17889 58.5935C7.94528 58.3438 7.82847 58.0081 7.82847 57.5865V53.7963H6.62415V57.7315C6.62415 58.4995 6.81346 59.0809 7.19207 59.4756C7.57338 59.8676 8.06074 60.0637 8.65418 60.0637C9.11872 60.0637 9.50674 59.9549 9.81823 59.7374C10.1324 59.5172 10.3606 59.242 10.503 58.9117H10.5674V59.9831H11.7516V53.7963H10.5432ZM13.2564 53.7963V59.9831H14.4607V56.205C14.4607 55.8022 14.599 55.4706 14.8755 55.2101C15.1548 54.947 15.5025 54.8154 15.9188 54.8154C16.0369 54.8154 16.1416 54.8261 16.2329 54.8476C16.3242 54.8691 16.4061 54.8986 16.4786 54.9362L16.8653 53.9293C16.7633 53.8594 16.6451 53.8044 16.5108 53.7641C16.3766 53.7238 16.2249 53.7037 16.0557 53.7037C15.6905 53.7037 15.3656 53.8004 15.081 53.9937C14.7963 54.1843 14.5976 54.4462 14.4848 54.7791H14.4204V53.7963H13.2564ZM18.506 59.7092C18.9383 59.975 19.4445 60.108 20.0245 60.108C20.6072 60.108 21.1134 59.975 21.543 59.7092C21.9753 59.4434 22.311 59.0715 22.5499 58.5935C22.7889 58.1128 22.9084 57.5543 22.9084 56.9179C22.9084 56.2761 22.7889 55.7149 22.5499 55.2343C22.311 54.7536 21.9753 54.3804 21.543 54.1145C21.1134 53.8487 20.6072 53.7158 20.0245 53.7158C19.4445 53.7158 18.9383 53.8487 18.506 54.1145C18.0737 54.3804 17.738 54.7536 17.499 55.2343C17.2601 55.7149 17.1406 56.2761 17.1406 56.9179C17.1406 57.5543 17.2601 58.1128 17.499 58.5935C17.738 59.0715 18.0737 59.4434 18.506 59.7092ZM20.963 58.7989C20.7186 58.9976 20.4071 59.097 20.0285 59.097C19.6499 59.097 19.3371 58.9976 19.09 58.7989C18.843 58.6002 18.6591 58.3357 18.5382 58.0054C18.4174 57.6725 18.357 57.3086 18.357 56.9139C18.357 56.5192 18.4174 56.1553 18.5382 55.8223C18.6591 55.4894 18.843 55.2235 19.09 55.0248C19.3371 54.8234 19.6499 54.7227 20.0285 54.7227C20.4071 54.7227 20.7186 54.8234 20.963 55.0248C21.21 55.2235 21.3926 55.4894 21.5108 55.8223C21.6316 56.1553 21.692 56.5192 21.692 56.9139C21.692 57.3086 21.6316 57.6725 21.5108 58.0054C21.3926 58.3357 21.21 58.6002 20.963 58.7989ZM24.1393 53.7963V62.3031H25.3436V59.0204H25.4161C25.4886 59.152 25.592 59.3024 25.7263 59.4716C25.8632 59.6407 26.0498 59.7884 26.2861 59.9146C26.5224 60.0408 26.8286 60.1039 27.2045 60.1039C27.7039 60.1039 28.1483 59.9764 28.5377 59.7213C28.9271 59.4662 29.2332 59.0997 29.456 58.6217C29.6789 58.141 29.7904 57.5677 29.7904 56.9018C29.7904 56.2332 29.6776 55.6612 29.452 55.1859C29.2265 54.7107 28.9177 54.3468 28.5256 54.0944C28.1363 53.842 27.6919 53.7158 27.1924 53.7158C26.8111 53.7158 26.5023 53.7802 26.266 53.9091C26.0324 54.0353 25.8498 54.183 25.7182 54.3522C25.5893 54.5213 25.4886 54.6704 25.4161 54.7993H25.3154V53.7963H24.1393ZM25.7383 58.4727C25.4591 58.0672 25.3195 57.5395 25.3195 56.8897C25.3195 56.2426 25.4564 55.723 25.7303 55.3309C26.0069 54.9362 26.4083 54.7388 26.9346 54.7388C27.2998 54.7388 27.6032 54.8328 27.8449 55.0208C28.0866 55.2088 28.2678 55.4652 28.3887 55.7901C28.5122 56.1123 28.5739 56.4789 28.5739 56.8897C28.5739 57.3032 28.5122 57.6751 28.3887 58.0054C28.2651 58.3357 28.0812 58.5975 27.8369 58.7909C27.5952 58.9815 27.2944 59.0768 26.9346 59.0768C26.4164 59.0768 26.0176 58.8754 25.7383 58.4727ZM34.5708 55.5001L35.6623 55.3068C35.5388 54.8261 35.285 54.4408 34.901 54.1508C34.5171 53.8608 33.9908 53.7158 33.3221 53.7158C32.8576 53.7158 32.4454 53.7923 32.0856 53.9454C31.7258 54.0984 31.4438 54.3132 31.2397 54.5898C31.0357 54.8637 30.9336 55.1833 30.9336 55.5484C30.9336 55.9861 31.0706 56.35 31.3445 56.64C31.6184 56.93 32.0453 57.1394 32.6253 57.2683L33.6726 57.4979C34.2552 57.6268 34.5466 57.8886 34.5466 58.2833C34.5466 58.5223 34.4284 58.7251 34.1921 58.8916C33.9558 59.0554 33.6403 59.1372 33.2456 59.1372C32.5045 59.1372 32.0614 58.8311 31.9164 58.2189L30.7524 58.3961C30.8544 58.9439 31.1229 59.3668 31.5579 59.6649C31.9929 59.9603 32.5582 60.108 33.2537 60.108C33.7531 60.108 34.1921 60.0261 34.5708 59.8623C34.9521 59.6985 35.2488 59.4729 35.4609 59.1856C35.6757 58.8983 35.7831 58.568 35.7831 58.1947C35.7831 57.3381 35.2192 56.7796 34.0914 56.5192L33.1087 56.2936C32.7676 56.213 32.5192 56.111 32.3635 55.9875C32.2104 55.8613 32.1353 55.6934 32.1379 55.484C32.1353 55.245 32.248 55.0503 32.4763 54.9C32.7072 54.7469 32.9932 54.6704 33.3342 54.6704C33.7101 54.6704 33.9921 54.7576 34.1801 54.9322C34.3707 55.104 34.5009 55.2933 34.5708 55.5001ZM36.9939 51.7341V59.9831H38.1982V57.7879L38.7983 57.1878L40.9009 59.9831H42.3791L39.7046 56.4507L42.2099 53.7963H40.768L38.3029 56.4144H38.1982V51.7341H36.9939ZM43.9312 59.9025C44.248 60.0475 44.6025 60.12 44.9945 60.12C45.5074 60.12 45.9115 60.014 46.2069 59.8018C46.5023 59.5897 46.7077 59.3682 46.8232 59.1372H46.8715V59.9831H48.0476V55.8747C48.0476 55.4236 47.9698 55.057 47.814 54.7751C47.661 54.4931 47.4609 54.2756 47.2139 54.1226C46.9695 53.9668 46.709 53.8608 46.4325 53.8044C46.1559 53.7453 45.8941 53.7158 45.647 53.7158C45.0885 53.7158 44.5729 53.838 44.1003 54.0823C43.6304 54.3267 43.2948 54.7308 43.0934 55.2947L44.2252 55.5525C44.3138 55.3323 44.4736 55.1336 44.7045 54.9564C44.9381 54.7791 45.2577 54.6905 45.6632 54.6905C46.0525 54.6905 46.3452 54.7872 46.5412 54.9805C46.7399 55.1739 46.8393 55.4464 46.8393 55.7982V55.8264C46.8393 55.9714 46.7856 56.0761 46.6782 56.1405C46.5734 56.205 46.4056 56.252 46.1747 56.2815C45.9464 56.3084 45.647 56.3433 45.2765 56.3862C44.9838 56.4211 44.6965 56.4722 44.4145 56.5393C44.1326 56.6037 43.8775 56.7017 43.6492 56.8333C43.4237 56.9649 43.2424 57.1435 43.1055 57.369C42.9712 57.5946 42.9041 57.8832 42.9041 58.235C42.9041 58.6405 42.9967 58.9842 43.182 59.2661C43.3673 59.5454 43.617 59.7575 43.9312 59.9025ZM46.1143 58.956C45.878 59.0876 45.592 59.1534 45.2563 59.1534C44.9153 59.1534 44.6347 59.0782 44.4145 58.9278C44.1943 58.7747 44.0842 58.5492 44.0842 58.2511C44.0842 57.9289 44.2078 57.6993 44.4548 57.5624C44.7045 57.4227 45.0039 57.3301 45.353 57.2844C45.4846 57.2656 45.6564 57.2415 45.8686 57.2119C46.0807 57.1824 46.2821 57.1462 46.4727 57.1032C46.6634 57.0602 46.7869 57.0106 46.8433 56.9542V57.7517C46.8433 57.996 46.7802 58.2256 46.654 58.4404C46.5305 58.6526 46.3506 58.8244 46.1143 58.956ZM56.3457 53.7963V57.4174C56.3484 57.7664 56.2746 58.0564 56.1242 58.2874C55.9765 58.5156 55.7899 58.6861 55.5643 58.7989C55.3414 58.9117 55.1172 58.9681 54.8917 58.9681C54.5184 58.9681 54.215 58.8432 53.9814 58.5935C53.7478 58.3438 53.6309 58.0081 53.6309 57.5865V53.7963H52.4266V57.7315C52.4266 58.4995 52.6159 59.0809 52.9945 59.4756C53.3759 59.8676 53.8632 60.0637 54.4567 60.0637C54.9212 60.0637 55.3092 59.9549 55.6207 59.7374C55.9349 59.5172 56.1631 59.242 56.3054 58.9117H56.3699V59.9831H57.5541V53.7963H56.3457ZM60.2632 59.9831V56.3097C60.2632 55.8156 60.3988 55.4343 60.67 55.1658C60.9412 54.8946 61.2862 54.759 61.7051 54.759C62.1133 54.759 62.4342 54.8865 62.6678 55.1416C62.9014 55.394 63.0182 55.7445 63.0182 56.1929V59.9831H64.2225V56.0479C64.2225 55.2826 64.0292 54.7026 63.6425 54.3079C63.2585 53.9131 62.7497 53.7158 62.116 53.7158C61.6514 53.7158 61.2661 53.8151 60.96 54.0138C60.6565 54.2125 60.4337 54.4757 60.2913 54.8033H60.2148V53.7963H59.0588V59.9831H60.2632ZM65.7243 53.7963V59.9831H66.9286V53.7963H65.7243ZM65.7927 52.6323C65.9431 52.7719 66.123 52.8417 66.3325 52.8417C66.5392 52.8417 66.7178 52.7719 66.8682 52.6323C67.0185 52.49 67.0937 52.3208 67.0937 52.1248C67.0937 51.9261 67.0185 51.7569 66.8682 51.6173C66.7178 51.475 66.5392 51.4038 66.3325 51.4038C66.123 51.4038 65.9431 51.475 65.7927 51.6173C65.645 51.7569 65.5712 51.9261 65.5712 52.1248C65.5712 52.3208 65.645 52.49 65.7927 52.6323ZM69.6397 53.7963H68.4354V60.3698C68.4354 60.6571 68.3723 60.8773 68.2461 61.0303C68.1199 61.1834 67.9131 61.2599 67.6258 61.2599H67.5331C67.5036 61.2599 67.47 61.2586 67.4324 61.2559V62.2951H67.666C68.3132 62.3031 68.8032 62.1407 69.1362 61.8077C69.4719 61.4747 69.6397 60.9981 69.6397 60.3778V53.7963ZM68.4918 52.6323C68.6421 52.7719 68.822 52.8417 69.0315 52.8417C69.2382 52.8417 69.4168 52.7719 69.5672 52.6323C69.7176 52.49 69.7927 52.3208 69.7927 52.1248C69.7927 51.9261 69.7176 51.7569 69.5672 51.6173C69.4168 51.475 69.2382 51.4038 69.0315 51.4038C68.822 51.4038 68.6421 51.475 68.4918 51.6173C68.3441 51.7569 68.2702 51.9261 68.2702 52.1248C68.2702 52.3208 68.3441 52.49 68.4918 52.6323ZM71.8836 59.9025C72.2004 60.0475 72.5549 60.12 72.9469 60.12C73.4598 60.12 73.8639 60.014 74.1593 59.8018C74.4547 59.5897 74.6601 59.3682 74.7755 59.1372H74.8239V59.9831H76V55.8747C76 55.4236 75.9221 55.057 75.7664 54.7751C75.6133 54.4931 75.4133 54.2756 75.1662 54.1226C74.9219 53.9668 74.6614 53.8608 74.3848 53.8044C74.1083 53.7453 73.8465 53.7158 73.5994 53.7158C73.0409 53.7158 72.5253 53.838 72.0527 54.0823C71.5828 54.3267 71.2472 54.7308 71.0458 55.2947L72.1776 55.5525C72.2662 55.3323 72.426 55.1336 72.6569 54.9564C72.8905 54.7791 73.2101 54.6905 73.6155 54.6905C74.0049 54.6905 74.2976 54.7872 74.4936 54.9805C74.6923 55.1739 74.7917 55.4464 74.7917 55.7982V55.8264C74.7917 55.9714 74.738 56.0761 74.6305 56.1405C74.5258 56.205 74.358 56.252 74.1271 56.2815C73.8988 56.3084 73.5994 56.3433 73.2289 56.3862C72.9362 56.4211 72.6488 56.4722 72.3669 56.5393C72.0849 56.6037 71.8298 56.7017 71.6016 56.8333C71.376 56.9649 71.1948 57.1435 71.0578 57.369C70.9236 57.5946 70.8565 57.8832 70.8565 58.235C70.8565 58.6405 70.9491 58.9842 71.1344 59.2661C71.3197 59.5454 71.5694 59.7575 71.8836 59.9025ZM74.0666 58.956C73.8303 59.0876 73.5444 59.1534 73.2087 59.1534C72.8677 59.1534 72.5871 59.0782 72.3669 58.9278C72.1467 58.7747 72.0366 58.5492 72.0366 58.2511C72.0366 57.9289 72.1601 57.6993 72.4072 57.5624C72.6569 57.4227 72.9563 57.3301 73.3054 57.2844C73.437 57.2656 73.6088 57.2415 73.8209 57.2119C74.0331 57.1824 74.2345 57.1462 74.4251 57.1032C74.6158 57.0602 74.7393 57.0106 74.7957 56.9542V57.7517C74.7957 57.996 74.7326 58.2256 74.6064 58.4404C74.4829 58.6526 74.3029 58.8244 74.0666 58.956Z" fill="#F5F5F5"/>
</svg>
