<svg width="72" height="72" viewBox="0 0 72 72" fill="none" xmlns="http://www.w3.org/2000/svg">
<rect width="72" height="72" rx="36" fill="#2B2724"/>
<path d="M33.0833 33.6667C35.3385 33.6667 37.1667 31.8385 37.1667 29.5833C37.1667 27.3282 35.3385 25.5 33.0833 25.5C30.8282 25.5 29 27.3282 29 29.5833C29 31.8385 30.8282 33.6667 33.0833 33.6667Z" stroke="#F0EFED" stroke-width="2" stroke-linejoin="round"/>
<path d="M39.5 42.418H46.5M43 38.918V45.918V38.918Z" stroke="#F0EFED" stroke-width="2" stroke-linecap="round" stroke-linejoin="round"/>
<path d="M37.75 38.332H32.9667C30.3531 38.332 29.0463 38.332 28.0481 38.8406C27.17 39.2881 26.456 40.002 26.0086 40.8801C25.5 41.8783 25.5 43.1851 25.5 45.7987V46.4987H37.75" stroke="#F0EFED" stroke-width="2" stroke-linecap="round" stroke-linejoin="round"/>
</svg>
