<svg width="18" height="18" viewBox="0 0 18 18" fill="none" xmlns="http://www.w3.org/2000/svg">
<path d="M9.55803 4.5L15.2369 4.50201L15.334 4.51886L15.4041 4.54252L15.4702 4.57508L15.5398 4.62254L15.6044 4.683L15.6502 4.74001L15.6893 4.80466L15.7255 4.8924L15.7385 4.9409L15.7512 5.03811L15.7517 10.6875C15.7517 10.9982 15.4999 11.25 15.1892 11.25C14.9131 11.25 14.6834 11.051 14.6358 10.7886L14.6267 10.6875L14.6261 6.42037L8.84005 12.2102C8.64494 12.4054 8.34206 12.4272 8.12281 12.2756L8.04488 12.2107L6.18792 10.3576L3.21025 13.3352C2.99058 13.5549 2.63442 13.5549 2.41475 13.3352C2.21949 13.14 2.19779 12.8369 2.34966 12.6177L2.41475 12.5398L5.78975 9.16475C5.98487 8.96963 6.2877 8.94781 6.50692 9.09937L6.58483 9.16434L8.44171 11.0173L13.8296 5.625H9.55803C9.28188 5.625 9.05222 5.42602 9.00459 5.16361L8.99553 5.0625C8.99553 4.75184 9.24737 4.5 9.55803 4.5Z" fill="#F0EFED"/>
</svg>
