<svg width="32" height="32" viewBox="0 0 32 32" fill="none" xmlns="http://www.w3.org/2000/svg">
<path opacity="0.1" fill-rule="evenodd" clip-rule="evenodd" d="M0 16C0 7.16344 7.16344 0 16 0C24.8366 0 32 7.16344 32 16C32 24.8366 24.8366 32 16 32C7.16344 32 0 24.8366 0 16Z" fill="#F0EFED"/>
<path d="M11.0335 14.2418H13.1343V20.9988H11.0335V14.2418ZM12.0848 13.318C12.7555 13.318 13.3024 12.7729 13.3024 12.1004C13.3024 11.9405 13.2709 11.7822 13.2097 11.6345C13.1485 11.4867 13.0588 11.3525 12.9458 11.2394C12.8327 11.1264 12.6985 11.0367 12.5507 10.9755C12.403 10.9143 12.2447 10.8828 12.0848 10.8828C11.9249 10.8828 11.7666 10.9143 11.6188 10.9755C11.4711 11.0367 11.3369 11.1264 11.2238 11.2394C11.1108 11.3525 11.0211 11.4867 10.9599 11.6345C10.8987 11.7822 10.8672 11.9405 10.8672 12.1004C10.8654 12.7729 11.4105 13.318 12.0848 13.318ZM16.5499 17.6557C16.5499 16.7743 16.718 15.9213 17.81 15.9213C18.886 15.9213 18.9019 16.9283 18.9019 17.7123V20.9988H21.0008V17.2929C21.0008 15.4736 20.608 14.0737 18.4825 14.0737C17.4613 14.0737 16.7764 14.6347 16.495 15.1656H16.4667V14.2418H14.451V20.9988H16.5499V17.6557Z" fill="#F0EFED"/>
</svg>
