<svg width="72" height="72" viewBox="0 0 72 72" fill="none" xmlns="http://www.w3.org/2000/svg">
<rect width="72" height="72" rx="36" fill="#2B2724"/>
<path d="M44.168 24.332H27.8346C27.1903 24.332 26.668 24.8544 26.668 25.4987V46.4987C26.668 47.143 27.1903 47.6654 27.8346 47.6654H44.168C44.8123 47.6654 45.3346 47.143 45.3346 46.4987V25.4987C45.3346 24.8544 44.8123 24.332 44.168 24.332Z" stroke="#F0EFED" stroke-width="2" stroke-linejoin="round"/>
<path d="M36.0013 33.0846C37.2899 33.0846 38.3346 32.0399 38.3346 30.7513C38.3346 29.4627 37.2899 28.418 36.0013 28.418C34.7127 28.418 33.668 29.4627 33.668 30.7513C33.668 32.0399 34.7127 33.0846 36.0013 33.0846Z" stroke="#F0EFED" stroke-width="2" stroke-linejoin="round"/>
<path d="M39.5 36.582C39.5 34.649 37.933 33.082 36 33.082C34.067 33.082 32.5 34.649 32.5 36.582" stroke="#F0EFED" stroke-width="2" stroke-linecap="round" stroke-linejoin="round"/>
<path d="M32.5 40.082H39.5" stroke="#F0EFED" stroke-width="2" stroke-linecap="round" stroke-linejoin="round"/>
<path d="M32.5 43.582H36.5833" stroke="#F0EFED" stroke-width="2" stroke-linecap="round" stroke-linejoin="round"/>
</svg>
