<svg width="72" height="72" viewBox="0 0 72 72" fill="none" xmlns="http://www.w3.org/2000/svg">
<rect width="72" height="72" rx="36" fill="#2B2724"/>
<path d="M25.5 27.3978L36.005 24.332L46.5 27.3978V33.685C46.5 40.2933 42.2709 45.5767 36.0015 47.6657C29.7304 45.5767 25.5 40.292 25.5 33.6821V27.3978Z" stroke="#F0EFED" stroke-width="2" stroke-linejoin="round"/>
<path d="M35.9987 35.4154C37.6095 35.4154 38.9154 34.1095 38.9154 32.4987C38.9154 30.8879 37.6095 29.582 35.9987 29.582C34.3879 29.582 33.082 30.8879 33.082 32.4987C33.082 34.1095 34.3879 35.4154 35.9987 35.4154Z" stroke="#F0EFED" stroke-width="2" stroke-linecap="round" stroke-linejoin="round"/>
<path d="M40.6654 40.0846C40.6654 37.5073 38.576 35.418 35.9987 35.418C33.4214 35.418 31.332 37.5073 31.332 40.0846" stroke="#F0EFED" stroke-width="2" stroke-linecap="round" stroke-linejoin="round"/>
</svg>
