<svg width="30" height="30" viewBox="0 0 30 30" fill="none" xmlns="http://www.w3.org/2000/svg">
<path d="M19.6875 15C19.6875 15.3376 19.5059 15.6492 19.2122 15.8157L14.287 18.6066C13.3496 19.1378 12.1875 18.4606 12.1875 17.3831V12.617C12.1875 11.5395 13.3496 10.8623 14.287 11.3935L19.2122 14.1844C19.5059 14.3508 19.6875 14.6624 19.6875 15ZM15 3.75C8.7868 3.75 3.75 8.7868 3.75 15C3.75 21.2132 8.7868 26.25 15 26.25C21.2132 26.25 26.25 21.2132 26.25 15C26.25 8.7868 21.2132 3.75 15 3.75ZM5.625 15C5.625 9.82233 9.82233 5.625 15 5.625C20.1777 5.625 24.375 9.82233 24.375 15C24.375 20.1777 20.1777 24.375 15 24.375C9.82233 24.375 5.625 20.1777 5.625 15Z" fill="#F0EFED"/>
</svg>
