<svg width="14" height="10" viewBox="0 0 14 10" fill="none" xmlns="http://www.w3.org/2000/svg">
<path d="M7.55803 0.5L13.2369 0.502012L13.334 0.518858L13.4041 0.542516L13.4702 0.575077L13.5398 0.622537L13.6044 0.683002L13.6502 0.740008L13.6893 0.804661L13.7255 0.892401L13.7385 0.940904L13.7512 1.03811L13.7517 6.6875C13.7517 6.99816 13.4999 7.25 13.1892 7.25C12.9131 7.25 12.6834 7.05101 12.6358 6.78861L12.6267 6.6875L12.6261 2.42037L6.84005 8.21016C6.64494 8.40535 6.34206 8.42722 6.12281 8.27564L6.04488 8.21066L4.18792 6.35758L1.21025 9.33525C0.990578 9.55492 0.634422 9.55492 0.414753 9.33525C0.21949 9.13999 0.197794 8.83688 0.349665 8.61766L0.414753 8.53975L3.78975 5.16475C3.98487 4.96963 4.2877 4.94781 4.50692 5.09937L4.58483 5.16434L6.44171 7.01733L11.8296 1.625H7.55803C7.28188 1.625 7.05222 1.42602 7.00459 1.16361L6.99553 1.0625C6.99553 0.75184 7.24737 0.5 7.55803 0.5Z" fill="#F0EFED"/>
</svg>
